<?xml version="1.0" encoding="utf-8"?>
<!-- Generator: Adobe Illustrator 19.0.0, SVG Export Plug-In . SVG Version: 6.00 Build 0)  -->
<svg version="1.1" id="_x34_d013dbf-db14-4122-ad2b-60ea13356778"
	 xmlns="http://www.w3.org/2000/svg" xmlns:xlink="http://www.w3.org/1999/xlink" x="0px" y="0px" viewBox="74 4.3 760.3 785.7"
	 style="enable-background:new 74 4.3 760.3 785.7;" xml:space="preserve">
<style type="text/css">
	.st0{fill:none;stroke:#535461;stroke-width:2;stroke-miterlimit:10;}
	.st1{fill:#6c63ff;} 
	.st2{opacity:0.2;fill:#fff;enable-background:new    ;}
	.st3{opacity:0.1;fill:#FFFFFF;enable-background:new    ;}
	.st4{opacity:0.1;fill:#252223;enable-background:new    ;} 
	.st5{fill:#6C63FF;}
	.baloon{animation:2s goUp forwards;}
	.baloon2{animation:4s goUp forwards;}
	.st6{opacity:0.25;enable-background:new    ;} 
	.st7{opacity:0.5;fill:#FFFFFF;enable-background:new    ;}
	.st8{opacity:0.7;} 
	.st9{fill:url(#SVGID_1_);}
	.st10{opacity:0.2;fill:#FFFFFF;enable-background:new    ;}
	.st11{fill:#535461;}
	.st12{opacity:7.000000e-002;enable-background:new    ;} 
	.st13{fill:url(#SVGID_2_);} 
	.st14{fill:#F0898B;}
	.st15{opacity:0.1;enable-background:new    ;} 
	.st16{fill:#FDB797;}
	.st17{opacity:5.000000e-002;;enable-background:new    ;}
	.st18{opacity:3.000000e-002;enable-background:new    ;}
	.st19{fill:#252223;}
	.st20{fill:#333333;}
	.st21{opacity:0.3;fill:#6C63FF;enable-background:new    ;}
	.st22{fill:none;stroke:#535461;stroke-width:0.75;stroke-miterlimit:10;}

	@keyframes goUp {
		0%{transform:translate(0px, 0px);
		}
		50%{
			transform:translate(0px, 0px);
		}
		100%{
			transform:translate(35px, -410px);
		}
	}

</style>
<g>
	<line class="st0 baloon2" x1="345" y1="513.5" x2="345" y2="625.7"/>
	<path class="st1 baloon2" d="M385,454.6c0,22.3-18.1,55-40.4,55s-40.4-32.7-40.4-55c0.4-22.3,18.7-40.1,41-39.8
		C367.1,415.2,384.7,432.8,385,454.6L385,454.6z"/>
	<polygon class="st1 baloon2" points="349.7,515.2 340,515.2 341.7,509.4 347.5,509.4 	"/>
	<g class="st2 baloon2">
		<path d="M345.5,467.5c-0.5,0-1,0-1.5,0c-0.5,0-1,0-1.5,0c-4.3-0.1-7.7-0.7-10.1-1.6c-1.2-0.4-2.1-0.8-2.9-1.4v4.1v0.3v0.3v0.8
			c1.7,1.7,7.2,3.3,14.6,3.3s12.9-1.6,14.6-3.3v-0.8V469v-0.3v-4.1c-0.8,0.5-1.8,1-2.9,1.4C353.1,466.8,349.7,467.4,345.5,467.5z"/>
		<path d="M329.4,456.9v4.1v0.3v0.3v0.8c1.5,1.6,6.4,3.1,13,3.3c0.1,0,0.1,0,0.2,0c0.2,0,0.4,0,0.6,0c0.3,0,0.5,0,0.8,0s0.5,0,0.8,0
			c0.2,0,0.4,0,0.6,0c0.1,0,0.1,0,0.2,0c6.6-0.2,11.5-1.7,13-3.3v-0.8v-0.3V461v-4.1c-2.8,1.9-8.8,3-14.6,3S332.2,458.8,329.4,456.9
			z"/>
		<path class="data" d="M358.4,453.2c-0.7-2.5-5.7-5-14.5-5c-8.8,0-13.8,2.5-14.5,5c0,0.1-0.1,0.2-0.1,0.3v0.3v1.1c1.7,1.7,7.2,3.3,14.6,3.3
			s12.9-1.6,14.6-3.3v-1.1v-0.3C358.5,453.3,358.5,453.3,358.4,453.2z"/>
		<path d="M329.4,472.1v4.8c0,0.1,0,0.2,0.1,0.3c0.7,2.9,6.8,5,14.5,5c7.6,0,13.8-2.1,14.5-5c0-0.1,0.1-0.2,0.1-0.3v-4.8
			c-2.4,1.7-7.4,3-14.6,3C336.7,475.1,331.8,473.8,329.4,472.1z"/>
	</g>
	<path class="st3" d="M330.9,422.9c0,0-17,9.3-19.5,27.8"/>
</g>
<line class="st0" x1="432.5" y1="151.1" x2="379.4" y2="220"/>
<title>ethereum</title>
<path class="st4" d="M799.2,687.4c-7.1,3.7-14.6,6.8-21.9,10c-27.2,11.5-54.8,23.1-84,27c-54.8,7.4-111.4-12.6-165.3-0.2
	c-45.2,10.4-82.5,42.3-126.6,56.6c-20.5,6.6-41.9,9.2-63.4,9.2h-2.8c-2.7,0-5.3-0.1-7.9-0.2c-21.8-0.8-43.8-4-65.1-8.2
	c-67.6-13-136.3-36.8-188-80.7C224.4,673.4,534.3,631.2,799.2,687.4z"/>
<path class="st0" d="M599.3,690.5c0,0-24.7-83.8,4.6-145.4c12.3-25.9,16.4-54.9,10.7-83c-2.7-13.3-6.6-26.4-11.8-39"/>
<path class="st5" d="M621.1,384.2c0,10.3-18.6,40-18.6,40s-18.6-29.8-18.6-40c-0.2-10.3,7.9-18.8,18.2-19c10.3-0.2,18.8,7.9,19,18.2
	C621.1,383.6,621.1,383.9,621.1,384.2L621.1,384.2z"/>
<path class="st5" d="M651.9,441.1c-5.6,8.6-37.4,23.5-37.4,23.5s0.6-35.1,6.2-43.7c5.8-8.5,17.4-10.6,25.8-4.9
	C654.7,421.6,657.1,432.6,651.9,441.1L651.9,441.1z"/>
<path class="st5" d="M650.5,538.2c-9.2,4.6-44.1,1.4-44.1,1.4s18.2-30,27.4-34.6c9.1-4.8,20.3-1.3,25.1,7.7
	c4.8,9.1,1.3,20.3-7.7,25.1C651,538,650.8,538.1,650.5,538.2L650.5,538.2z"/>
<path class="st5" d="M633,611.5c-8.3,6.1-43.2,8.9-43.2,8.9s12.9-32.6,21.1-38.8c8.2-6.2,19.9-4.5,26,3.7c6.2,8.2,4.5,19.9-3.7,26
	C633.1,611.4,633,611.5,633,611.5z"/>
<path class="st5" d="M575.5,466.5c7.4,7.2,41.6,14.6,41.6,14.6s-8.4-34.1-15.8-41.2c-7.5-7-19.3-6.5-26.3,1
	C568.3,448.2,568.5,459.5,575.5,466.5L575.5,466.5z"/>
<path class="st5" d="M556,552.5c9.2,4.6,44.1,1.4,44.1,1.4s-18.2-30-27.4-34.6c-9.1-4.8-20.3-1.3-25.1,7.7
	c-4.8,9.1-1.3,20.3,7.7,25.1C555.6,552.3,555.8,552.4,556,552.5L556,552.5z"/>
<path class="st5" d="M548.6,638.7c8.3,6.1,43.2,8.9,43.2,8.9s-12.9-32.6-21.1-38.8c-8.2-6.2-19.9-4.5-26,3.7
	c-6.2,8.2-4.5,19.9,3.7,26C548.4,638.6,548.5,638.6,548.6,638.7z"/>
<path class="st6" d="M621.1,384.2c0,10.3-18.6,40-18.6,40s-18.6-29.8-18.6-40c-0.2-10.3,7.9-18.8,18.2-19c10.3-0.2,18.8,7.9,19,18.2
	C621.1,383.6,621.1,383.9,621.1,384.2L621.1,384.2z"/>
<path class="st6" d="M651.9,441.1c-5.6,8.6-37.4,23.5-37.4,23.5s0.6-35.1,6.2-43.7c5.8-8.5,17.4-10.6,25.8-4.9
	C654.7,421.6,657.1,432.6,651.9,441.1L651.9,441.1z"/>
<path class="st6" d="M650.5,538.2c-9.2,4.6-44.1,1.4-44.1,1.4s18.2-30,27.4-34.6c9.1-4.8,20.3-1.3,25.1,7.7
	c4.8,9.1,1.3,20.3-7.7,25.1C651,538,650.8,538.1,650.5,538.2L650.5,538.2z"/>
<path class="st6" d="M633,611.5c-8.3,6.1-43.2,8.9-43.2,8.9s12.9-32.6,21.1-38.8c8.2-6.2,19.9-4.5,26,3.7c6.2,8.2,4.5,19.9-3.7,26
	C633.1,611.4,633,611.5,633,611.5z"/>
<path class="st6" d="M575.5,466.5c7.4,7.2,41.6,14.6,41.6,14.6s-8.4-34.1-15.8-41.2c-7.5-7-19.3-6.5-26.3,1
	C568.3,448.2,568.5,459.5,575.5,466.5L575.5,466.5z"/>
<path class="st6" d="M556,552.5c9.2,4.6,44.1,1.4,44.1,1.4s-18.2-30-27.4-34.6c-9.1-4.8-20.3-1.3-25.1,7.7
	c-4.8,9.1-1.3,20.3,7.7,25.1C555.6,552.3,555.8,552.4,556,552.5L556,552.5z"/>
<path class="st6" d="M548.6,638.7c8.3,6.1,43.2,8.9,43.2,8.9s-12.9-32.6-21.1-38.8c-8.2-6.2-19.9-4.5-26,3.7
	c-6.2,8.2-4.5,19.9,3.7,26C548.4,638.6,548.5,638.6,548.6,638.7z"/>
<path class="st0" d="M170.4,719.9c0,0-24.7-83.8,4.6-145.4c12.3-25.9,16.4-54.9,10.7-83c-2.7-13.3-6.6-26.4-11.8-39"/>
<path class="st5" d="M192.2,413.6c0,10.3-18.6,40-18.6,40s-18.6-29.8-18.6-40c-0.2-10.3,7.9-18.8,18.2-19c10.3-0.2,18.8,7.9,19,18.2
	C192.2,413,192.2,413.3,192.2,413.6L192.2,413.6z"/>
<path class="st5" d="M222.9,470.4c-5.6,8.6-37.4,23.5-37.4,23.5s0.6-35.1,6.2-43.7c5.4-8.8,16.8-11.5,25.6-6.1
	c8.8,5.4,11.5,16.8,6.1,25.6C223.3,469.9,223.1,470.2,222.9,470.4L222.9,470.4z"/>
<path class="st5" d="M221.6,567.6c-9.2,4.6-44.1,1.4-44.1,1.4s18.2-30,27.4-34.6c9.3-4.4,20.4-0.5,24.8,8.7
	C234,552.1,230.4,562.9,221.6,567.6L221.6,567.6z"/>
<path class="st5" d="M204,640.9c-8.3,6.1-43.2,8.9-43.2,8.9s12.9-32.6,21.1-38.8c8.3-6,19.9-4.2,26,4.1
	C213.9,623.3,212.1,634.8,204,640.9L204,640.9z"/>
<path class="st5" d="M146.5,495.9c7.4,7.2,41.7,14.6,41.7,14.6s-8.4-34.1-15.8-41.2c-7.5-7-19.3-6.5-26.3,1
	C139.4,477.5,139.6,488.8,146.5,495.9L146.5,495.9z"/>
<path class="st5" d="M127.1,581.9c9.2,4.6,44.1,1.4,44.1,1.4s-18.2-30-27.4-34.6c-9.3-4.4-20.4-0.4-24.8,8.9
	C114.9,566.5,118.4,577.2,127.1,581.9z"/>
<path class="st5" d="M119.6,668c8.3,6.1,43.2,8.9,43.2,8.9s-12.9-32.6-21.1-38.8c-8.3-6-19.9-4.2-26,4.1
	C109.8,650.4,111.5,661.9,119.6,668L119.6,668z"/>
<path class="st6" d="M192.2,413.6c0,10.3-18.6,40-18.6,40s-18.6-29.8-18.6-40c-0.2-10.3,7.9-18.8,18.2-19c10.3-0.2,18.8,7.9,19,18.2
	C192.2,413,192.2,413.3,192.2,413.6L192.2,413.6z"/>
<path class="st6" d="M222.9,470.4c-5.6,8.6-37.4,23.5-37.4,23.5s0.6-35.1,6.2-43.7c5.4-8.8,16.8-11.5,25.6-6.1
	c8.8,5.4,11.5,16.8,6.1,25.6C223.3,469.9,223.1,470.2,222.9,470.4L222.9,470.4z"/>
<path class="st6" d="M221.6,567.6c-9.2,4.6-44.1,1.4-44.1,1.4s18.2-30,27.4-34.6c9.3-4.4,20.4-0.5,24.8,8.7
	C234,552.1,230.4,562.9,221.6,567.6L221.6,567.6z"/>
<path class="st6" d="M204,640.9c-8.3,6.1-43.2,8.9-43.2,8.9s12.9-32.6,21.1-38.8c8.3-6,19.9-4.2,26,4.1
	C213.9,623.3,212.1,634.8,204,640.9L204,640.9z"/>
<path class="st6" d="M146.5,495.9c7.4,7.2,41.7,14.6,41.7,14.6s-8.4-34.1-15.8-41.2c-7.5-7-19.3-6.5-26.3,1
	C139.4,477.5,139.6,488.8,146.5,495.9L146.5,495.9z"/>
<path class="st6" d="M127.1,581.9c9.2,4.6,44.1,1.4,44.1,1.4s-18.2-30-27.4-34.6c-9.3-4.4-20.4-0.4-24.8,8.9
	C114.9,566.5,118.4,577.2,127.1,581.9z"/>
<path class="st6" d="M119.6,668c8.3,6.1,43.2,8.9,43.2,8.9s-12.9-32.6-21.1-38.8c-8.3-6-19.9-4.2-26,4.1
	C109.8,650.4,111.5,661.9,119.6,668L119.6,668z"/>
<path class="st0" d="M472.1,665c0,0-13.4-45.3,2.5-78.7c6.7-14,8.8-29.7,5.8-44.9c-1.5-7.2-3.6-14.3-6.4-21.1"/>
<path class="st5" d="M483.9,499.1c0,5.6-10.1,21.7-10.1,21.7s-10.1-16.1-10.1-21.7c0-5.6,4.5-10.1,10.1-10.1
	S483.9,493.6,483.9,499.1L483.9,499.1L483.9,499.1z"/>
<path class="st5" d="M500.5,529.9c-3,4.7-20.2,12.7-20.2,12.7s0.3-19,3.3-23.7c3-4.7,9.3-6,13.9-3
	C502.2,519.1,503.5,525.3,500.5,529.9L500.5,529.9z"/>
<path class="st5" d="M499.8,582.5c-5,2.5-23.9,0.8-23.9,0.8s9.9-16.2,14.8-18.7c5-2.5,11-0.5,13.5,4.5
	C506.7,574,504.7,580.1,499.8,582.5L499.8,582.5L499.8,582.5z"/>
<path class="st5" d="M490.3,622.2c-4.5,3.3-23.4,4.8-23.4,4.8s7-17.7,11.4-21c4.5-3.3,10.8-2.4,14.1,2.1
	C495.7,612.6,494.8,618.9,490.3,622.2L490.3,622.2z"/>
<path class="st5" d="M459.1,543.7c4,3.9,22.6,7.9,22.6,7.9s-4.6-18.5-8.6-22.3c-4.1-3.8-10.5-3.5-14.2,0.6
	C455.3,533.9,455.4,539.9,459.1,543.7z"/>
<path class="st5" d="M448.6,590.3c5,2.5,23.9,0.8,23.9,0.8s-9.9-16.2-14.8-18.7c-5-2.5-11-0.5-13.5,4.5
	C441.6,581.8,443.6,587.8,448.6,590.3L448.6,590.3z"/>
<path class="st5" d="M444.6,636.9c4.5,3.3,23.4,4.8,23.4,4.8s-7-17.7-11.4-21c-4.5-3.3-10.8-2.4-14.1,2.1
	C439.1,627.3,440.1,633.6,444.6,636.9L444.6,636.9z"/>
<path class="st7" d="M483.9,499.1c0,5.6-10.1,21.7-10.1,21.7s-10.1-16.1-10.1-21.7c0-5.6,4.5-10.1,10.1-10.1
	S483.9,493.6,483.9,499.1L483.9,499.1L483.9,499.1z"/>
<path class="st7" d="M500.5,529.9c-3,4.7-20.2,12.7-20.2,12.7s0.3-19,3.3-23.7c3-4.7,9.3-6,13.9-3
	C502.2,519.1,503.5,525.3,500.5,529.9L500.5,529.9z"/>
<path class="st7" d="M499.8,582.5c-5,2.5-23.9,0.8-23.9,0.8s9.9-16.2,14.8-18.7c5-2.5,11-0.5,13.5,4.5
	C506.7,574,504.7,580.1,499.8,582.5L499.8,582.5L499.8,582.5z"/>
<path class="st7" d="M490.3,622.2c-4.5,3.3-23.4,4.8-23.4,4.8s7-17.7,11.4-21c4.5-3.3,10.8-2.4,14.1,2.1
	C495.7,612.6,494.8,618.9,490.3,622.2L490.3,622.2z"/>
<path class="st7" d="M459.1,543.7c4,3.9,22.6,7.9,22.6,7.9s-4.6-18.5-8.6-22.3c-4.1-3.8-10.5-3.5-14.2,0.6
	C455.3,533.9,455.4,539.9,459.1,543.7z"/>
<path class="st7" d="M448.6,590.3c5,2.5,23.9,0.8,23.9,0.8s-9.9-16.2-14.8-18.7c-5-2.5-11-0.5-13.5,4.5
	C441.6,581.8,443.6,587.8,448.6,590.3L448.6,590.3z"/>
<path class="st7" d="M444.6,636.9c4.5,3.3,23.4,4.8,23.4,4.8s-7-17.7-11.4-21c-4.5-3.3-10.8-2.4-14.1,2.1
	C439.1,627.3,440.1,633.6,444.6,636.9L444.6,636.9z"/>
<line class="st0 baloon" x1="380" y1="106" x2="380" y2="218.2"/>
<line class="st0" x1="327.2" y1="141.3" x2="380" y2="218.2"/>
<g class="st8">
	
		<linearGradient id="SVGID_1_" gradientUnits="userSpaceOnUse" x1="599.255" y1="582.95" x2="599.2551" y2="735.1111" gradientTransform="matrix(1 0 0 -1 -219.88 739.4299)">
		<stop  offset="0" style="stop-color:#808080;stop-opacity:0.25"/>
		<stop  offset="0.54" style="stop-color:#808080;stop-opacity:0.12"/>
		<stop  offset="1" style="stop-color:#808080;stop-opacity:0.1"/>
	</linearGradient>
	<path class="st9" d="M475.5,92.8c0-23.1-18.7-41.8-41.8-41.8c-4.4,0-8.7,0.7-12.9,2c0.3-2.3,0.5-4.7,0.5-7.1
		c0-23.1-18.7-41.7-41.8-41.7c-21.9,0-40,16.9-41.6,38.7c-21.9-7.1-45.5,4.9-52.7,26.8c-1.4,4.2-2,8.5-2.1,12.9
		c0,21,15.4,50.8,35.5,56l3.1,1.8l-1.7,5.8h10.1l-2.2-5.8l3.1-1.8c15.5-4.1,28.3-22.8,33.3-40.8c2.7,1.8,5.7,3.2,8.9,4.1l3.1,1.8
		l-1.7,5.8h10.1l-2.2-5.8l3.1-1.8c2.3-0.6,4.5-1.5,6.6-2.7c2.7,20.1,17,44.7,35.1,49.5l3.1,1.8l-1.7,5.8H439l-2.2-5.8l3.1-1.8
		C460.1,143.6,475.5,113.8,475.5,92.8z"/>
</g>
<polygon class="st5" points="331.9,144.3 322.1,144.3 323.8,138.4 329.7,138.4 "/>
<path class="st5" d="M367.1,82.7c0,22.3-18.1,55-40.4,55s-40.4-32.7-40.4-55c0.4-22.3,18.7-40.1,41-39.8
	C349.2,43.3,366.8,60.9,367.1,82.7L367.1,82.7z"/>
<path class="st10" d="M367.1,82.7c0,22.3-18.1,55-40.4,55s-40.4-32.7-40.4-55c0.4-22.3,18.7-40.1,41-39.8
	C349.2,43.3,366.8,60.9,367.1,82.7L367.1,82.7z"/>
<polygon class="st11" points="329.7,138.7 323.8,138.7 320.4,136.7 333.1,136.7 "/>
<path class="st3" d="M312.1,51.3c0,0-17,9.3-19.5,27.8"/>
<polygon class="st5 baloon" points="384.7,108.7 375,108.7 376.7,102.9 382.5,102.9 "/>
<polygon class="st12 baloon" points="384.7,110.1 375,110.1 376.7,104.3 382.5,104.3 "/>
<path class="st5 baloon" d="M420,47.1c0,22.3-18.1,55-40.4,55s-40.4-32.7-40.4-55c0.4-22.3,18.7-40.1,41-39.8
	C402.1,7.7,419.7,25.3,420,47.1L420,47.1z"/>
<polygon class="st11 baloon" points="382.5,103.1 376.7,103.1 373.3,101.2 385.9,101.2 "/>
<path class="st3" d="M365,15.7c0,0-17,9.3-19.5,27.8"/>
<polygon class="st5" points="437.1,154 427.4,154 429.1,148.2 434.9,148.2 "/>
<path class="st5" d="M472.4,92.4c0,22.3-18.1,55-40.4,55s-40.4-32.7-40.4-55c0.4-22.3,18.7-40.1,41-39.8
	C454.4,53,472,70.6,472.4,92.4L472.4,92.4z"/>
<path class="st10" d="M472.4,92.4c0,22.3-18.1,55-40.4,55s-40.4-32.7-40.4-55c0.4-22.3,18.7-40.1,41-39.8
	C454.4,53,472,70.6,472.4,92.4L472.4,92.4z"/>
<polygon class="st11" points="434.9,148.4 429.1,148.4 425.7,146.5 438.3,146.5 "/>
<path class="st3" d="M417.4,61c0,0-17,9.3-19.5,27.7"/>
<path class="st2" d="M446.8,100l-13.9,8.5L419,100l13.9-23.8L446.8,100z M432.9,111.2l-13.9-8.5l13.9,20.3l13.9-20.3L432.9,111.2z"
	/>
<path class="st2 baloon" d="M393.9,51.8L380,60.3l-13.9-8.5L380,27.9L393.9,51.8z M380,63l-13.9-8.5L380,74.7l13.9-20.3L380,63L380,63z"/>
<path class="st2" d="M339.2,90.7l-13.9,8.5l-13.9-8.5l13.9-23.9L339.2,90.7z M325.3,101.9l-13.9-8.5l13.9,20.3l13.9-20.3
	L325.3,101.9z"/>
<linearGradient id="SVGID_2_" gradientUnits="userSpaceOnUse" x1="564.5042" y1="-13.6354" x2="564.5042" y2="536.11" gradientTransform="matrix(1 0 0 -1 -219.88 739.4299)">
	<stop  offset="0" style="stop-color:#808080;stop-opacity:0.25"/>
	<stop  offset="0.54" style="stop-color:#808080;stop-opacity:0.12"/>
	<stop  offset="1" style="stop-color:#808080;stop-opacity:0.1"/>
</linearGradient>
<path class="st13" d="M430,744.2c-7-1.6-12.8-10-12.8-10l-0.6,0.1l6.9-91.6c0,0,7.3-13.3,0-32.6c-1.5-3.8-2.8-7.9-4.1-11.9l1.1-0.5
	l-0.2-1.2l0.2-0.1c0,0-21.3-116.7-21.5-154.7c0-4.6,0.4-7.9,1.2-9.4c3.4-6.4,9.4-15.6,9.1-27.1c0.2-11.2-5.4-24.8-25.6-40
	c1.6-12.8,5.6-39.8,12.5-58c0,0,2.7-12,0-30l-4-50.6c0,0,0.7-23.3-14-23.3s0.7,26,0.7,26l-1.3,65.9c0,0-0.4,3.4-1.2,8.8
	c-3.5-4-8.2-6.8-13.4-8.1c0.2-2.4-0.1-4.8-1-7.1c-0.3,0.2-0.6,0.4-0.9,0.5c-0.1-0.4-0.3-0.8-0.4-1.2c-3.1,1.9-6.7,3-10.4,3
	c-3.4,0-6.7-0.8-10-1.1c-5.7-0.4-11.3,0.9-16.3,3.6c-0.7-0.1-1.4-0.2-2.1-0.3c-13.1-2-22.2,14.7-35.3,21.5
	c-9.2,4.8-12.9,16-14.4,26.3s-1.6,21.2-7,30.1c-3.7,6.1-11.9,9.6-13.4,16.5c-3,13.5,0.3,10.2,3.7,28.1c1.1,5.9,2.5,8.3,3.9,14.2
	c1.5,6.3-0.2,13-0.4,19.5c-0.6,17.1,10.4,33.6,25.6,40.9c3.8,2,8,3.4,12.3,4.2c-0.7,7.6-3.9,14.8-9,20.5c0.5,0.2,1,0.3,1.5,0.4
	l-0.2,0.2c8.8,2.9,18.5-0.5,26.3-5.5c2.3-1.5,4.4-3.1,6.5-4.9c-1.2,2.8-2.2,5.7-2.9,8.7l-0.1,0.1l-1.6-0.4c0,0,0.5,0.3,1.3,0.7
	c-4.4,4.1-47.8,44.1-64.5,51.8c-3.7,0.1-15.7,21.5,15.6,29.1c24.6,6,30-2.7,42.6,12.7c3.5,4.1,8.1,7.2,13.2,9
	c-3.6,11.5-9.3,25.9-15.9,29c-11.3,5.3-30,33.3-32,43.3l-16.7,35.6h-0.3l-3.4,3.6c-2.3,2.5-2.2,6.3,0.3,8.6c0.6,0.5,1.2,0.9,1.9,1.2
	c9.7,3.8,25.4,9.2,32.5,6.5c10.6-4-6-8-6-8c-6.7-2.7-10-11.3-10-11.3l53.6-60.9c0,0,21-8.1,25.3-25.3c0.3-1.1,3.4-9.5,7.1-19.1
	c3.4-0.3,6.6-0.6,9.6-0.9c4.8-0.5,10.4-2.4,16.1-4.9c3.5,11.7,6.5,24.5,5.2,30.2c-2.7,12-6,27.3,0,47.3l10.3,44.3h0.9l-1.1,0.2
	l-2.8,4.1c-1.9,2.8-1.2,6.6,1.6,8.5c0.6,0.4,1.4,0.7,2.1,0.9c10.2,2.3,26.4,5.1,33,1.4C447.1,745.6,430,744.2,430,744.2z
	 M342.3,417.5c-0.2-4.8-0.2-9.7,0.2-14.5c0.9,8.8,2.4,17.5,4.6,26c2.9,6.1,4.5,12.8,4.6,19.6c-0.1,9.5-3.6,18.6-9.9,25.7l-0.1,0.1
	C346.6,456,343.1,436.5,342.3,417.5L342.3,417.5z"/>
<path class="st14" d="M347.6,376.7c-5.7,9.7-4.7,27.5,3.3,59.9c0,0,9.1,24.7-9.1,45.5s-22.1,39-22.1,39s-57.2,35.4-64.4,51.4
	c10.7-23.8-24.5,10.3,16.3,20.2c24.1,5.9,29.3-2.6,41.6,12.4s40.3,13,57.9,11.1c17.6-1.9,47.5-22.8,47.5-22.8s-33.2-139.9-26-153.6
	c6.8-12.9,31.1-37.5-16.6-69.3C366.5,364.2,353.4,366.9,347.6,376.7z"/>
<path class="st15" d="M347.6,376.7c-5.7,9.7-4.7,27.5,3.3,59.9c0,0,9.1,24.7-9.1,45.5s-22.1,39-22.1,39s-57.6,35.3-64.4,51.4
	c10.1-23.8-24.5,10.3,16.3,20.2c24.1,5.9,29.3-2.6,41.6,12.4s40.3,13,57.9,11.1c17.6-1.9,47.5-22.8,47.5-22.8s-33.2-139.9-26-153.6
	c6.8-12.9,31.1-37.5-16.6-69.3C366.5,364.2,353.4,366.9,347.6,376.7z"/>
<path class="st16" d="M330.1,599.3c0,0-8.5,37.7-19.5,42.9s-29.3,32.5-31.2,42.3L262.8,720h15l52.3-59.5c0,0,20.5-8,24.7-24.7
	c0.6-2.6,18.2-48.2,18.2-48.2L330.1,599.3z"/>
<path class="st16" d="M378.9,587.6c0,0,15.6,41.6,13,53.4s-5.9,26.7,0,46.2l10.1,43.3l13-0.7l6.8-90.8c0,0,7.2-13,0-31.9
	s-12.4-42.3-12.4-42.3L378.9,587.6z"/>
<path class="st16" d="M382.1,374.8c0,0,3.9-39.7,13-63.8c0,0,2.6-11.7,0-29.3l-3.9-49.5c0,0,0.7-22.8-13.7-22.8s0.7,25.4,0.7,25.4
	l-1.3,64.4c0,0-8.5,65.7-14.3,72.9L382.1,374.8z"/>
<path class="st17" d="M382.1,374.8c0,0,3.9-39.7,13-63.8c0,0,2.6-11.7,0-29.3l-3.9-49.5c0,0,0.7-22.8-13.7-22.8s0.7,25.4,0.7,25.4
	l-1.3,64.4c0,0-8.5,65.7-14.3,72.9L382.1,374.8z"/>
<path class="st16" d="M378.9,328c0,0-2.6,31.2,5.2,41.6c0,0-18.2-9.8-33.8-1.3c0,0,9.8-26.7,6.5-38.4L378.9,328z"/>
<path class="st15" d="M347.6,370.2c-5.7,9.7-8.6,27.5-0.6,59.9c0,0,13,24.7-5.2,45.5c-18.2,20.8-22.1,39-22.1,39
	s-48.1,44.9-64.4,51.4c0,0-7.8,14.3,16.3,20.2s29.3-2.6,41.6,12.4s40.3,13,57.9,11.1c17.6-1.9,47.8-14.6,47.8-14.6
	s-27-148-19.8-161.7c6.8-12.9,24.6-37.5-23.1-69.3C366.5,357.7,353.4,360.4,347.6,370.2z"/>
<path class="st14" d="M347.6,368.9c-5.7,9.7-8.6,27.5-0.6,59.9c0,0,13,24.7-5.2,45.5c-18.2,20.8-22.1,39-22.1,39
	s-48.1,44.9-64.4,51.4c0,0-7.8,14.3,16.3,20.2s29.3-2.6,41.6,12.4s40.3,13,57.9,11.1c17.6-1.9,47.8-14.6,47.8-14.6
	s-27-148-19.8-161.7c6.8-12.9,24.6-37.5-23.1-69.3C366.5,356.4,353.4,359.1,347.6,368.9z"/>
<circle class="st16" cx="367.2" cy="384.6" r="22.1"/>
<path class="st15" d="M359.4,393.7l-4.5,68.3l15,72.9c0,0-13.7,48.2,0,43.6c13.7-4.6,14.3-44.2,14.3-44.2l-9.1-76.1
	c0,0,11.1-57.3,9.1-69S359.4,393.7,359.4,393.7z"/>
<path class="st16" d="M359.4,392.4l-4.5,68.3l15,72.9c0,0-13.7,48.1,0,43.5s14.3-44.2,14.3-44.2l-9.1-76.1c0,0,11.1-57.3,9.1-69
	S359.4,392.4,359.4,392.4z"/>
<path class="st18" d="M356.4,349.1c9.2,0,17.6-2.6,22-10c0.1-5.8,0.4-9.9,0.4-9.9l-22.1,2c1.4,5,0.6,9.3-1,16.6
	C356.2,347.8,356,349.1,356.4,349.1z"/>
<circle class="st16" cx="356.8" cy="324.7" r="25.4"/>
<path class="st18" d="M384.4,422.6c0,0,2,9.8,14.6,10.7"/>
<path class="st18" d="M317.1,597.3c-12.4-15-17.6-6.5-41.6-12.4s-16.3-20.2-16.3-20.2c16.3-6.5,64.4-51.4,64.4-51.4
	s3.9-18.2,22.1-39s5.2-45.5,5.2-45.5c-8-32.5-5.1-50.2,0.6-59.9c3.2-5.4,8.8-8.9,15.1-9.5c-7.6-0.8-15.1,2.9-19,9.5
	c-5.7,9.7-8.6,27.5-0.6,59.9c0,0,13,24.7-5.2,45.5c-18.2,20.8-22.1,39-22.1,39s-48.1,44.9-64.4,51.4c0,0-7.8,14.3,16.3,20.2
	s29.3-2.6,41.6,12.4c8.5,10.3,24.6,12.6,39.4,12.4C338.9,609.5,324.9,606.8,317.1,597.3z"/>
<path class="st15" d="M366,354.1c-0.8-1.8-2.6-3-3.9-4.5c-4.3-4.9-3.5-12.2-3.8-18.7c-0.3-6.2-1.6-12.3-4.1-18
	c1.5-0.8,2.9-1.8,4.1-3c4.2-4.5,5.5-11,3.3-16.8c-3.1,1.9-6.6,2.9-10.2,2.9c-3.3,0-6.5-0.8-9.8-1c-5.5-0.4-11.1,0.8-15.9,3.5
	c-0.7-0.1-1.4-0.1-2-0.3c-12.8-1.9-21.7,14.4-34.5,21c-9,4.7-12.6,15.6-14,25.7s-1.6,20.7-6.8,29.4c-3.6,5.9-11.6,9.4-13.1,16.1
	c-2.9,13.2,0.3,9.9,3.6,27.5c1.1,5.8,2.5,8.1,3.8,13.9c1.5,6.2-0.2,12.7-0.4,19c-0.7,20.9,16.3,41,37.1,43.6
	c-0.6,7.6-3.7,14.8-8.9,20.5c8.6,2.8,18.1-0.4,25.7-5.4c12.3-8.1,21.2-20.4,25.3-34.5c5.1-18.1,1.6-37.4,0.8-56.3s2.2-39.8,16.5-52
	C362.8,363.4,368.1,358.9,366,354.1z"/>
<path class="st19" d="M364.7,353.5c-0.8-1.8-2.6-3-3.9-4.5c-4.3-4.9-3.5-12.2-3.8-18.7c-0.3-6.2-1.6-12.3-4.1-18
	c1.5-0.8,2.9-1.8,4.1-3c4.2-4.5,5.5-11.1,3.3-16.9c-3.1,1.9-6.6,2.9-10.2,2.9c-3.3,0-6.5-0.8-9.8-1c-5.5-0.4-11.1,0.8-15.9,3.5
	c-0.7-0.1-1.4-0.1-2-0.3c-12.8-1.9-21.7,14.4-34.5,21c-9,4.7-12.6,15.6-14,25.7s-1.6,20.7-6.8,29.4c-3.6,5.9-11.6,9.4-13.1,16.1
	c-2.9,13.2,0.3,9.9,3.6,27.5c1.1,5.8,2.5,8.1,3.8,13.9c1.5,6.2-0.2,12.7-0.4,19c-0.7,20.9,16.3,41,37.1,43.6
	c-0.6,7.6-3.7,14.8-8.9,20.5c8.6,2.8,18.1-0.4,25.7-5.4c12.3-8.1,21.3-20.3,25.4-34.5c5.1-18.1,1.6-37.4,0.8-56.3s2.2-39.8,16.5-52
	C361.5,362.8,366.8,358.3,364.7,353.5z"/>
<path class="st20" d="M277.7,720c0,0,3.3,8.5,9.8,11.1c0,0,16.3,3.9,5.9,7.8c-7,2.6-22.3-2.6-31.8-6.4c-3.1-1.3-4.5-4.8-3.3-7.8
	c0.3-0.6,0.6-1.2,1.1-1.8l3.3-3.5L277.7,720z"/>
<path class="st20" d="M415.6,728.5c0,0,5.6,8.2,12.5,9.8c0,0,16.7,1.3,7,6.8c-6.4,3.6-22.4,0.9-32.3-1.3c-3.2-0.7-5.3-3.9-4.5-7.2
	c0.2-0.7,0.5-1.4,0.9-2l2.7-4L415.6,728.5z"/>
<path class="st18" d="M318,513.1c0,0,15,8.5,31.9,7.8"/>
<polygon class="st21" points="288.1,267.9 283.9,267.9 284.6,265.4 287.1,265.4 "/>
<path class="st21" d="M303.1,241.6c0,9.5-7.7,23.5-17.2,23.5s-17.2-14-17.2-23.5c0-9.5,7.7-17.2,17.2-17.2
	C295.4,224.4,303.1,232.1,303.1,241.6L303.1,241.6L303.1,241.6z"/>
<polygon class="st11" points="287.1,265.5 284.6,265.5 283.2,264.7 288.6,264.7 "/>
<path class="st3" d="M279.6,228.2c0,0-7.3,4-8.3,11.8"/>
<path class="st2" d="M292.2,244.9l-5.9,3.6l-5.9-3.6l5.9-10.2L292.2,244.9z M286.2,249.6l-5.9-3.6l5.9,8.6l5.9-8.6L286.2,249.6z"/>
<path class="st22" d="M286.3,265.1c-2.2,2.5-3.2,5.8-2.7,9.1c0.9,5.4,5.4,10.9,4.5,17.2s-3.6,10-3.6,12.7"/>
<polygon class="st21" points="736.2,322.5 732.1,322.5 732.8,320 735.3,320 "/>
<path class="st21" d="M751.3,296.2c0,9.5-7.7,23.5-17.2,23.5s-17.2-14-17.2-23.5c0-9.5,7.7-17.2,17.2-17.3
	C743.5,279,751.3,286.7,751.3,296.2C751.3,296.2,751.3,296.2,751.3,296.2z"/>
<polygon class="st11" points="735.3,320.1 732.8,320.1 731.3,319.3 736.7,319.3 "/>
<path class="st3" d="M727.8,282.8c0,0-7.3,4-8.3,11.8"/>
<path class="st2" d="M740.3,299.4l-5.9,3.6l-5.9-3.6l5.9-10.2L740.3,299.4z M734.4,304.2l-5.9-3.6l5.9,8.6l5.9-8.6L734.4,304.2z"/>
<path class="st22" d="M734.5,319.7c-2.2,2.5-3.2,5.8-2.7,9.1c0.9,5.4,5.4,10.9,4.5,17.2s-3.6,10-3.6,12.7"/>
<polygon class="st21" points="813.7,292.8 809.6,291.9 810.9,289.6 813.3,290.1 "/>
<path class="st21" d="M833.9,270.1c-2,9.3-12.4,21.4-21.7,19.4s-14-17.2-12-26.5c2.1-9.3,11.4-15.1,20.6-13
	C829.9,252.1,835.6,261,833.9,270.1z"/>
<polygon class="st11" points="813.3,290.2 810.8,289.7 809.6,288.6 814.9,289.7 "/>
<path class="st3" d="M813.7,252.2c0,0-7.9,2.4-10.6,9.9"/>
<path class="st2" d="M822.5,271.1l-6.5,2.3l-5.1-4.8l7.9-8.7L822.5,271.1z M815.7,274.5l-5.1-4.8l4,9.7l7.6-7.2L815.7,274.5
	L815.7,274.5z"/>
<path class="st22" d="M812.6,289.6c-2.7,1.9-4.4,5-4.5,8.3c-0.2,5.5,3.1,11.8,0.9,17.8s-5.6,9-6.2,11.7"/>
<polygon class="st12" points="349.7,516.2 340,516.2 341.7,510.4 347.5,510.4 "/>
</svg>
